<svg version="1.2" xmlns="http://www.w3.org/2000/svg" viewBox="0 0 1326 1473" width="1326" height="1473">
	<title>ptreoon2-svg</title>
	<style>
		.s0 { fill: #000000 } 
	</style>
	<path id="Layer" class="s0" d="m1324.3 419.8c0 11.5 0.8 23.1-0.2 34.5-1.1 13.3-3 26.6-5.4 39.7q-1.3 7-2.7 14-1.4 7-2.9 14-1.6 6.9-3.2 13.8-1.7 7-3.4 13.9-1.3 5.1-2.8 10.1-1.5 5-3.2 10-1.6 5-3.4 9.9-1.8 5-3.8 9.8c-11.5 28.3-24.3 55.9-41.1 81.3q-15.6 23.6-31.8 46.6-1.6 2.1-3.2 4.1-1.6 2.1-3.3 4.1-1.7 2-3.5 3.9-1.8 1.9-3.6 3.8c-8.3 8.7-16.3 17.7-25.3 25.5q-4.9 4.5-9.9 8.8-5.1 4.3-10.3 8.4-5.1 4.2-10.4 8.2-5.3 4-10.7 7.9c-13.1 9.2-27.8 15.9-41.2 24.8-14.8 9.9-31.8 14.1-47.7 21.6-14.1 6.6-29.2 8.8-43.6 14-18.3 6.6-37.5 8.2-56.3 12.2-20 4.3-40.4 7.4-60.5 11.5-16.5 3.4-32.8 7.3-49.3 11-9.3 2.1-18.7 3.6-27.8 6.4-11.1 3.4-22 7.8-32.9 11.9-7.4 2.6-15.2 4.6-22.2 8-10.3 5.2-20.1 11.6-30.3 17.1-16.8 8.9-30.9 21.5-43.6 35.3-10.7 11.8-20.1 25.1-29.4 38.1-15.4 21.6-26 45.8-35.5 70.5-9.3 24.2-17.9 48.7-26.7 73.1-8.1 23-15.8 46-24 69q-2.8 7.4-5.6 14.9-2.8 7.4-5.6 14.8-2.9 7.5-5.8 14.9-2.8 7.4-5.8 14.8-4.2 10.6-8.9 21-4.6 10.5-9.8 20.7-5.2 10.2-10.8 20.1-5.6 10-11.7 19.6c-12.2 19.6-25.2 38.6-42 54.4-13.5 12.6-26.5 25.9-43 34.7-16.5 8.9-33.4 16.5-51.6 20.5q-8.1 1.8-16.4 2.9-8.3 1.2-16.6 1.8-8.4 0.6-16.7 0.6-8.4 0-16.7-0.5c-8.5-0.5-16.8-2.8-25.2-4.3-5-1-10.1-1.8-15-3.3-4.2-1.3-8-3.6-11.9-5.6-11.1-5.4-22.9-9.7-33.1-16.4q-4.7-3.3-9.2-6.7-4.5-3.4-9-7-4.4-3.6-8.7-7.3-4.3-3.7-8.4-7.6c-20.4-18.1-35.7-40.6-49.4-64q-3.5-5.9-6.8-11.9-3.3-5.9-6.4-12-3.1-6.1-6.1-12.2-3-6.2-5.7-12.4c-7.1-16.1-12.4-32.9-18.1-49.5q-1.7-4.8-3.3-9.7-1.7-4.9-3.2-9.8-1.6-4.9-3.1-9.8-1.5-4.9-3-9.8c-3.3-11.7-6-23.6-8.9-35.4-2.7-11-5.5-21.9-7.8-32.9-4.1-19.8-7.9-39.5-11.8-59.2q-0.6-3.1-1.2-6.3-0.7-3.1-1.3-6.2-0.6-3.2-1.2-6.3-0.6-3.1-1.2-6.2c-2.2-12.6-4.1-25.1-6.2-37.6-1.7-9.4-3.4-18.7-4.8-28-1.6-10.3-3-20.6-4.6-30.9-1.3-8.9-2.9-17.7-4.1-26.6-1.2-8.3-2.2-16.7-3.3-25q-0.4-3.3-0.9-6.7-0.4-3.3-0.9-6.7-0.4-3.3-0.8-6.7-0.4-3.4-0.8-6.7c-1.1-8.7-2.1-17.3-3.1-26l-3.5-30.1c-0.4-3.6-0.8-7.1-1.1-10.7-1.2-14.8-2.5-29.6-3.7-44.5q-0.3-3.4-0.5-6.9-0.3-3.4-0.5-6.8-0.3-3.5-0.4-6.9-0.2-3.5-0.4-7c-0.8-14.3-1.6-28.5-1.9-42.8q-0.2-8.9-0.3-17.7-0.2-8.8-0.3-17.6-0.1-8.9-0.2-17.7-0.1-8.8-0.1-17.6c0-13.9 0.1-27.8 1-41.6 0.9-14.4 2.9-28.8 4.5-43.3 1.2-11.4 2.3-22.8 3.8-34.3 0.9-6.5 2.4-12.8 3.7-19.1 3.4-15.9 6.5-31.8 10.4-47.6 2.7-11.4 6.6-22.4 9.7-33.7 5.8-21 14.5-40.8 23-60.8 3.9-9.2 8.6-18 13.5-26.6 6.8-12.2 13.5-24.3 21.2-35.7q14.3-20.9 30.3-40.4 3.8-4.7 7.7-9.2 3.9-4.5 7.9-9 4-4.4 8.1-8.8 4.1-4.3 8.4-8.5c8.8-8.8 18.8-16.5 28.3-24.5 9.4-7.8 18.4-15.9 28.3-22.9 15.2-10.9 30.8-21.2 46.5-31.3 9.2-5.8 18.9-10.8 28.5-15.9 14.9-8.1 29.8-16.2 44.9-23.9 9.5-4.8 19.3-8.9 29.2-13 25.1-10.2 50.2-20.5 75.6-30 16.9-6.3 34.3-11.2 51.4-16.6 8.9-2.9 17.5-6 26.4-8.5 7.4-2 14.8-3.1 22.2-4.9 8.1-1.8 16-4.3 24.2-5.8 11-2.2 22.2-3.7 33.3-5.4 12.6-2 25-3.9 37.6-5.6 5.1-0.7 10.4-0.8 15.6-1.1 17.3-1 34.7-2 52-2.9 6.9-0.3 14.1-1.8 20.8-0.7 16.3 3 32.7 0.7 49 1.9 15.8 1.1 31.4 2.8 47 4.6 11.3 1.4 22.4 3.8 33.7 5.6 9.8 1.4 19.6 2.3 29.5 3.9 7.9 1.3 15.8 3 23.7 4.7 16.9 3.8 33.8 7.2 50.5 11.7 14.9 4 29.4 10.1 44.3 13.6 17.3 4.1 33.1 12.2 49.7 17.6 17 5.5 31.7 15.6 47.9 22.4 18.9 7.9 35.3 20 52.1 31.5 12.8 8.8 25.2 18.1 36.8 28.3 17.2 15.1 33.9 30.8 49.9 47.1 9.5 9.6 17.6 20.8 26.2 31.3 14 17.1 24.2 36.5 34.2 56 7.9 15.6 14.4 32.2 19.7 48.9 4.4 13.7 5.8 28.5 9 42.5 3.7 15.5 3.6 31.1 2.7 46.8z"/>
</svg>